# xmcd
#
# Track frame offsets:
#  150
#  12171
#  27971
#  40328
#
# Disc length: 769 seconds
#
# Revision: 2
# Processed by: cddbd v1.5.1PL0 Copyright (c) Steve Scherf et al.
# Submitted via: AltoMP3_Maker 3.0
#
DISCID=2602ff04
DTITLE=Dempsey and Kill Holiday - split - split
DYEAR=1900
DGENRE=
TTITLE0=Dempsey - Bleeder
TTITLE1=Dempsey - Pimp
TTITLE2=Kill Holiday - Agenda
TTITLE3=Kill Holiday - Sugar Rush
EXTD=
EXTT0=
EXTT1=
EXTT2=
EXTT3=
PLAYORDER=
